<svg width="100" height="100" viewBox="0 0 100 100" fill="none" xmlns="http://www.w3.org/2000/svg" role="img" aria-label="Icône de salon de coiffure">
  <title>Icône de coiffure décorative</title>
  <g stroke="#4A4A4A" stroke-width="3" stroke-linecap="round" stroke-linejoin="round">
    <path d="M32 72 C 25 79, 25 89, 32 96 C 39 103, 49 103, 56 96 L 85 67 M 68 72 C 75 79, 85 79, 92 72 C 99 65, 99 55, 92 48 L 63 19 M 56 96 L 42 82 M 92 48 L 78 62"/>
    <circle cx="44" cy="84" r="6" />
    <circle cx="80" cy="60" r="6" />
    
    <path d="M15 35 C 15 35, 25 10, 50 10 C 75 10, 85 25, 85 35 C 85 45, 75 60, 50 60 C 35 60, 28 55, 25 50"/>
  </g>
</svg>